<?xml version="1.0" encoding="utf-8"?><svg viewBox="0 0 60 60" xmlns="http://www.w3.org/2000/svg" xmlns:xlink="http://www.w3.org/1999/xlink"><style>:root>svg{display:none}:root>svg:target{display:block}</style>
<svg viewBox="0 0 40 40" id="arrow" xmlns="http://www.w3.org/2000/svg"><path fill="#5B86A1" d="M15.256 33c.33-.004.648-.13.89-.354l12.488-12.305a1.237 1.237 0 000-1.753L16.146 6.283a1.277 1.277 0 00-1.697.082 1.234 1.234 0 00-.083 1.671L25.98 19.465 14.366 30.893a1.237 1.237 0 000 1.753c.242.223.559.35.89.354z"/></svg>
<svg viewBox="0 0 40 40" id="arrowDisabled" xmlns="http://www.w3.org/2000/svg"><path fill="#A3A5A3" d="M15.256 33c.33-.004.648-.13.89-.354l12.488-12.305a1.237 1.237 0 000-1.753L16.146 6.283a1.277 1.277 0 00-1.697.082 1.234 1.234 0 00-.083 1.671L25.98 19.465 14.366 30.893a1.237 1.237 0 000 1.753c.242.223.559.35.89.354z"/></svg>
<svg viewBox="0 0 20 20" id="checked" xmlns="http://www.w3.org/2000/svg"><path d="M16.25 5L7.5 15l-3.75-3.75" stroke="#000" stroke-linecap="round" stroke-linejoin="round"/></svg>
<svg viewBox="0 0 40 40" id="close" xmlns="http://www.w3.org/2000/svg"><path d="M30 30L10 10m20 0L10 30" stroke="#202321" stroke-width="2" stroke-linecap="round" stroke-linejoin="round"/></svg>
<svg viewBox="0 0 30 30" fill="none" id="close-white" xmlns="http://www.w3.org/2000/svg"><path d="M22.5 22.5l-15-15m15 0l-15 15" stroke="#F7FBFB" stroke-width="2" stroke-linecap="round" stroke-linejoin="round"/></svg>
<svg viewBox="0 0 40 40" id="email" xmlns="http://www.w3.org/2000/svg"><path d="M33.6 7H6.4c-1.87 0-3.383 1.463-3.383 3.25L3 29.75C3 31.538 4.53 33 6.4 33h27.2c1.87 0 3.4-1.462 3.4-3.25v-19.5C37 8.463 35.47 7 33.6 7zm-.68 6.906L20.9 21.09a1.787 1.787 0 01-1.801 0l-12.02-7.183a1.429 1.429 0 01-.438-.363 1.357 1.357 0 01-.254-.499 1.322 1.322 0 01.175-1.074 1.41 1.41 0 01.4-.402 1.512 1.512 0 011.648-.002L20 18.376l11.39-6.81a1.483 1.483 0 011.114-.217c.192.038.373.112.534.219.16.107.296.243.4.402a1.343 1.343 0 01.174 1.074c-.048.181-.134.35-.253.5a1.428 1.428 0 01-.44.362z"/></svg>
<svg viewBox="0 0 40 40" id="facebook" xmlns="http://www.w3.org/2000/svg"><path d="M20 3.4c-9.167 0-16.667 7.483-16.667 16.7 0 8.333 6.1 15.25 14.067 16.5V24.933h-4.233V20.1H17.4v-3.683c0-4.184 2.483-6.484 6.3-6.484 1.817 0 3.717.317 3.717.317v4.117h-2.1c-2.067 0-2.717 1.283-2.717 2.6V20.1h4.633l-.75 4.833H22.6V36.6a16.667 16.667 0 0014.067-16.5c0-9.217-7.5-16.7-16.667-16.7z"/></svg>
<svg viewBox="0 0 40 40" id="instargam" xmlns="http://www.w3.org/2000/svg"><path d="M13 3.333h14c5.333 0 9.667 4.334 9.667 9.667v14A9.667 9.667 0 0127 36.667H13c-5.333 0-9.667-4.334-9.667-9.667V13A9.667 9.667 0 0113 3.334zm-.333 3.334a6 6 0 00-6 6v14.667c0 3.316 2.683 6 6 6h14.666a6 6 0 006-6V12.667c0-3.317-2.683-6-6-6H12.667zm16.083 2.5a2.083 2.083 0 110 4.167 2.083 2.083 0 010-4.167zm-8.75 2.5a8.333 8.333 0 110 16.667 8.333 8.333 0 010-16.667zM20 15a5 5 0 100 10 5 5 0 000-10z"/></svg>
<svg viewBox="0 0 40 40" id="location" xmlns="http://www.w3.org/2000/svg"><path d="M20 3C13.366 3 8 8.32 8 14.9 8 23.825 20 37 20 37s12-13.175 12-22.1C32 8.32 26.634 3 20 3zm0 16.15a4.304 4.304 0 01-3.03-1.245 4.232 4.232 0 01-1.256-3.005c0-1.127.452-2.208 1.255-3.005A4.304 4.304 0 0120 10.65c1.138 0 2.228.448 3.031 1.245a4.232 4.232 0 011.256 3.005 4.232 4.232 0 01-1.256 3.005A4.304 4.304 0 0120 19.15z"/></svg>
<svg viewBox="0 0 60 60" id="logo" xmlns="http://www.w3.org/2000/svg"><path fill="#F7FBFB" d="M53.091 12.042L34.91 2.119C33.586 1.397 31.843 1 30 1s-3.586.397-4.909 1.12L6.91 12.041C4.156 13.544 2 17.074 2 20.078v19.848c0 3.003 2.156 6.533 4.909 8.035l18.182 9.92C26.414 58.603 28.157 59 30 59s3.586-.398 4.909-1.119l18.182-9.924C55.844 46.455 58 42.925 58 39.92V20.073c0-2.996-2.156-6.529-4.909-8.031zM7.924 46.294c-2.109-1.15-3.891-4.068-3.891-6.371V31.44c6.474-.482 10.308 1.14 15.097 3.177 4.309 1.834 9.49 4.035 17.957 5.22-1.582.288-3.18.551-4.771.813-8.647 1.426-16.824 2.784-21.295 7.333l-3.097-1.69zM35.236 29.03c-3.907 1.468-8.996 2.784-16.521 3.308-3.328-1.397-6.495-2.578-10.644-2.85L21.896 16.42l10.218 9.657 3.122 2.952zm-.966-3.63l9.941-9.396 7.472 7.063c-4.3.37-7.312 1.81-10.649 3.416-1.163.559-2.4 1.152-3.777 1.74L34.27 25.4zm21.696 14.523c0 2.303-1.782 5.22-3.892 6.371L33.89 56.217c-1 .548-2.418.865-3.891.865-1.473 0-2.89-.314-3.892-.862l-13.284-7.252c4.101-3.828 11.761-5.092 19.841-6.425 9.109-1.5 18.486-3.05 23.302-8.609v5.989zm0-9.58c-2.137 4.382-7 6.68-12.793 8.19-9.981-.685-15.863-2.64-20.684-4.608 9.858-1.116 15.135-3.651 19.465-5.733 4.264-2.051 7.68-3.683 14.012-3.217v5.368zm0-7.295a31.953 31.953 0 00-1.505-.073l-9.53-9.008a1.022 1.022 0 00-.33-.209 1.067 1.067 0 00-1.107.209L32.836 24.04l-10.22-9.658a1.021 1.021 0 00-.33-.208 1.067 1.067 0 00-1.108.208L5.238 29.452a31.91 31.91 0 00-1.2.06V20.08c0-2.303 1.782-5.222 3.891-6.372l18.184-9.923c1.003-.548 2.422-.862 3.892-.862 1.47 0 2.89.314 3.892.862l18.183 9.923c2.11 1.151 3.892 4.069 3.892 6.372l-.006 2.969z"/></svg>
<svg viewBox="0 0 40 40" id="phone" xmlns="http://www.w3.org/2000/svg"><path d="M26.77 2H13.23a4.305 4.305 0 00-2.991 1.198 4.024 4.024 0 00-1.24 2.893v27.818c0 1.085.447 2.126 1.24 2.893A4.305 4.305 0 0013.231 38h13.538a4.305 4.305 0 002.992-1.198A4.024 4.024 0 0031 33.909V6.091a4.024 4.024 0 00-1.24-2.893A4.305 4.305 0 0026.77 2zM20 36.364c-1.405 0-2.539-1.097-2.539-2.455s1.134-2.454 2.539-2.454c1.404 0 2.538 1.096 2.538 2.454S21.404 36.364 20 36.364zm7.615-6.546h-15.23V6.91h15.23v22.91z"/></svg>
<svg viewBox="0 0 40 40" id="rounarrow" xmlns="http://www.w3.org/2000/svg"><path d="M20 11.667C10.8 11.667 3.333 15.4 3.333 20c0 3.733 4.9 6.883 11.667 7.95v3.367c0 .75.9 1.116 1.417.583l4.65-4.65a.825.825 0 000-1.183l-4.65-4.65a.833.833 0 00-1.417.6v2.533c-5.25-.933-8.333-3.167-8.333-4.55 0-1.767 5.066-5 13.333-5s13.333 3.233 13.333 5c0 1.1-2 2.8-5.533 3.9a1.63 1.63 0 00-1.133 1.567c0 1.116 1.083 1.933 2.133 1.6 4.717-1.467 7.867-4.084 7.867-7.067 0-4.6-7.467-8.333-16.667-8.333z"/></svg>
<svg viewBox="0 0 40 40" id="star" xmlns="http://www.w3.org/2000/svg"><path fill="#F7FBFB" d="M19.06 7.716a.976.976 0 011.88 0l2.391 7.706a.995.995 0 00.941.716h7.737c.958 0 1.357 1.284.581 1.874l-6.259 4.763a1.064 1.064 0 00-.359 1.158l2.39 7.706c.297.955-.746 1.748-1.522 1.158l-6.259-4.762a.953.953 0 00-1.162 0l-6.26 4.762c-.775.59-1.818-.203-1.522-1.158l2.391-7.706a1.064 1.064 0 00-.36-1.158L7.41 18.012c-.776-.59-.377-1.874.581-1.874h7.737a.995.995 0 00.94-.716l2.391-7.706z"/></svg>
<svg viewBox="0 0 40 40" id="telegram" xmlns="http://www.w3.org/2000/svg"><path d="M19.99 3.333a16.667 16.667 0 100 33.334 16.667 16.667 0 000-33.334zm5.3 25.254a1.176 1.176 0 01-1.67.587l-4.525-3.517-2.903 2.68a.5.5 0 01-.475.065l.556-4.982.017.015.012-.098s8.141-7.413 8.473-7.729c.337-.315.225-.383.225-.383.02-.383-.602 0-.602 0l-10.788 6.94-4.492-1.53s-.69-.247-.755-.792c-.068-.54.777-.833.777-.833l17.862-7.097s1.468-.653 1.468.43l-3.18 16.244z"/></svg>
<svg viewBox="0 0 16 16" id="tm" xmlns="http://www.w3.org/2000/svg"><path d="M10 6.75s-.75-1-2-1-2.25 1-2.25 2.25 1 2.25 2.25 2.25 2-1 2-1M14.25 8a6.25 6.25 0 11-12.5 0 6.25 6.25 0 0112.5 0z" stroke="#A3A5A3" stroke-width="1.5" stroke-linecap="round" stroke-linejoin="round"/></svg></svg>